HIERARCHY
ROOT Hips
{
  OFFSET 53.4568 93.7617 8.41402
  CHANNELS 6 Xposition Yposition Zposition Zrotation Xrotation Yrotation
  JOINT spine
  {
    OFFSET 0 7.4756 0.429885
    CHANNELS 3 Zrotation Xrotation Yrotation
    JOINT spine1
    {
      OFFSET 0 9.92301 0
      CHANNELS 3 Zrotation Xrotation Yrotation
      JOINT spine2
      {
        OFFSET 0 9.50804 0
        CHANNELS 3 Zrotation Xrotation Yrotation
        JOINT Neck
        {
          OFFSET 0 24.4111 1.16384
          CHANNELS 3 Zrotation Xrotation Yrotation
          JOINT Head
          {
            OFFSET 0 7.37523 0
            CHANNELS 3 Zrotation Xrotation Yrotation
            End Site
            {
              OFFSET 0 17.8522 -5.88741
            }
          }
        }
        JOINT RightShoulder
        {
          OFFSET -4.00356 10.2679 -0.557468
          CHANNELS 3 Zrotation Xrotation Yrotation
          JOINT RightArm
          {
            OFFSET 0 13.4673 0
            CHANNELS 3 Zrotation Xrotation Yrotation
            JOINT RightArmRoll
            {
              OFFSET 0 6.79858 0
              CHANNELS 3 Zrotation Xrotation Yrotation
              JOINT RightForeArm
              {
                OFFSET 0 19.8018 0
                CHANNELS 3 Zrotation Xrotation Yrotation
                JOINT RightForeArmRoll
                {
                  OFFSET 0 7.62906 0
                  CHANNELS 3 Zrotation Xrotation Yrotation
                  JOINT RightHand
                  {
                    OFFSET 0 15.3098 0
                    CHANNELS 3 Zrotation Xrotation Yrotation
                    End Site
                    {
                      OFFSET 0 0 0
                    }
                  }
                }
              }
            }
          }
        }
        JOINT LeftShoulder
        {
          OFFSET 4.00356 10.2679 -0.557468
          CHANNELS 3 Zrotation Xrotation Yrotation
          JOINT LeftArm
          {
            OFFSET 0 13.4673 0
            CHANNELS 3 Zrotation Xrotation Yrotation
            JOINT LeftArmRoll
            {
              OFFSET 0 6.79858 0
              CHANNELS 3 Zrotation Xrotation Yrotation
              JOINT LeftForeArm
              {
                OFFSET 0 19.8018 0
                CHANNELS 3 Zrotation Xrotation Yrotation
                JOINT LeftForeArmRoll
                {
                  OFFSET 0 7.62905 0
                  CHANNELS 3 Zrotation Xrotation Yrotation
                  JOINT LeftHand
                  {
                    OFFSET 0 15.3098 0
                    CHANNELS 3 Zrotation Xrotation Yrotation
                    End Site
                    {
                      OFFSET 0 0 0
                    }
                  }
                }
              }
            }
          }
        }
      }
    }
  }
  JOINT RightUpLeg
  {
    OFFSET -6.62609 -1.21505 -1.01927
    CHANNELS 3 Zrotation Xrotation Yrotation
    JOINT RightUpLegRoll
    {
      OFFSET 0 17.9517 0
      CHANNELS 3 Zrotation Xrotation Yrotation
      JOINT RightLeg
      {
        OFFSET 0 -22.2304 0
        CHANNELS 3 Zrotation Xrotation Yrotation
        JOINT RightLegRoll
        {
          OFFSET 0 22.3032 0
          CHANNELS 3 Zrotation Xrotation Yrotation
          JOINT RightFoot
          {
            OFFSET 0 18.5636 0
            CHANNELS 3 Zrotation Xrotation Yrotation
            JOINT RightToeBase
            {
              OFFSET 0 15.5183 0
              CHANNELS 3 Zrotation Xrotation Yrotation
              End Site
              {
                OFFSET 0.00657761 7.51539 -0.866262
              }
            }
          }
        }
      }
    }
  }
  JOINT LeftUpLeg
  {
    OFFSET 6.62609 -1.21505 -1.01927
    CHANNELS 3 Zrotation Xrotation Yrotation
    JOINT LeftUpLegRoll
    {
      OFFSET 0 17.9518 0
      CHANNELS 3 Zrotation Xrotation Yrotation
      JOINT LeftLeg
      {
        OFFSET 0 22.2303 0
        CHANNELS 3 Zrotation Xrotation Yrotation
        JOINT LeftLegRoll
        {
          OFFSET 0 22.5093 0
          CHANNELS 3 Zrotation Xrotation Yrotation
          JOINT LeftFoot
          {
            OFFSET 0 18.3575 0
            CHANNELS 3 Zrotation Xrotation Yrotation
            JOINT LeftToeBase
            {
              OFFSET 0 15.5183 0
              CHANNELS 3 Zrotation Xrotation Yrotation
              End Site
              {
                OFFSET -0.029478 7.51538 -0.866263
              }
            }
          }
        }
      }
    }
  }
}
MOTION
Frames: 10
Frame Time: 0.00208333
52.9668 93.6065 7.6972 -2.06708 -2.61655 -0.198668 -0.114167 -1.42038 0.00669687 -0.232942 1.162 0.0259418 -0.233405 2.80706 0.0298556 14.2843 3.55443 -3.3291 11.6285 14.197 -0.909913 13.4161 -16.8325 -15.7875 6.87452 28.2265 94.8285 -5.87398e-007 -9.90951e-007 -3.33614e-006 5.74698 57.7475 -2.10842 -4.4668e-008 -1.68702e-006 -3.00963 8.02945 -4.95142 0.697668 -78.2716 -0.607816 2.47288 -93 12.3925 -23.3693 2.45933e-005 -5.85986e-007 5.96077e-006 -3.02987 1.3082 0.844172 -7.04463e-006 2.01311e-006 3.00735 -8.02924 -4.95147 -0.697682 -176.635 -0.487404 -2.7755 180 7.01568e-015 179.021 177.894 6.0128 179.776 3.27036e-006 -6.58709e-007 0.046419 -18.1266 67.4252 19.0629 8.13649 25.2327 -3.48774 -177.188 2.31865 2.14509 4.54188e-006 -4.6773e-006 -1.04338 -2.00768 -9.62342 0.117707 -2.31537e-006 -1.84853e-007 -0.169299 19.692 69.333 -20.7122 -8.13649 25.2327 3.48774 
52.9878 93.6084 7.70192 -2.06805 -2.62474 -0.199832 -0.113561 -1.4201 0.00685903 -0.231156 1.1623 0.0268688 -0.231626 2.80735 0.0307518 14.2223 3.5368 -3.31368 11.619 14.2007 -0.908507 13.5041 -16.8313 -15.7705 6.95036 28.2927 94.764 -5.87398e-007 -9.90951e-007 -3.33614e-006 5.56702 57.4724 -2.01719 -4.4668e-008 -1.68702e-006 -3.00962 8.02945 -4.95142 0.697668 -78.2538 -0.614781 2.47391 -93.0017 12.4 -23.3748 2.45933e-005 -5.85986e-007 5.96077e-006 -3.02277 1.32739 0.844928 -7.04463e-006 2.01311e-006 3.00734 -8.02924 -4.95147 -0.697682 -176.633 -0.494602 -2.77606 180 7.01568e-015 179.02 177.896 6.01936 179.776 3.27036e-006 -6.58709e-007 0.0464556 -18.1294 67.4287 19.0656 8.13649 25.2327 -3.48774 -177.189 2.30666 2.1461 4.54188e-006 -4.6773e-006 -1.04358 -2.00583 -9.62035 0.118026 -2.31536e-006 -1.84853e-007 -0.169132 19.6908 69.3317 -20.711 -8.13649 25.2327 3.48774 
52.9822 93.6103 7.70854 -2.06958 -2.63278 -0.200879 -0.112873 -1.41967 0.0070168 -0.229088 1.16267 0.0279951 -0.229564 2.80773 0.031843 14.1596 3.5175 -3.29756 11.6076 14.2053 -0.906763 13.5919 -16.83 -15.7536 7.0336 28.3594 94.7021 -5.87398e-007 -9.90951e-007 -3.33614e-006 5.39711 57.2088 -1.93227 -4.46681e-008 -1.68702e-006 -3.0096 8.02945 -4.95142 0.697668 -78.2351 -0.62208 2.475 -93.0049 12.4082 -23.3809 2.45933e-005 -5.85986e-007 5.96077e-006 -3.01455 1.34771 0.845713 -7.04463e-006 2.01311e-006 3.00733 -8.02924 -4.95147 -0.697682 -176.63 -0.501934 -2.77704 180 7.01568e-015 179.019 177.898 6.02534 179.776 3.27036e-006 -6.58709e-007 0.0464854 -18.1318 67.4317 19.0679 8.13649 25.2327 -3.48774 -177.189 2.29505 2.14691 4.54188e-006 -4.6773e-006 -1.04377 -2.00391 -9.61752 0.118424 -2.31537e-006 -1.84853e-007 -0.168953 19.69 69.3306 -20.71 -8.13649 25.2327 3.48774 
52.9796 93.6064 7.7016 -2.07155 -2.64071 -0.201886 -0.112116 -1.41913 0.00716978 -0.226774 1.16311 0.029282 -0.227259 2.80817 0.0330911 14.096 3.49681 -3.28065 11.5948 14.211 -0.904616 13.6797 -16.8286 -15.7365 7.12338 28.4264 94.6428 -5.87398e-007 -9.90951e-007 -3.33614e-006 5.23543 56.9542 -1.85261 -4.46681e-008 -1.68702e-006 -3.00958 8.02945 -4.95142 0.697668 -78.2157 -0.629698 2.47615 -93.0093 12.4171 -23.3874 2.45933e-005 -5.85986e-007 5.96077e-006 -3.00539 1.36891 0.846519 -7.04463e-006 2.01311e-006 3.00732 -8.02924 -4.95147 -0.697682 -176.627 -0.509323 -2.77838 180 7.01568e-015 179.018 177.901 6.03094 179.776 3.27036e-006 -6.58709e-007 0.0465097 -18.1339 67.4343 19.0699 8.13649 25.2327 -3.48774 -177.189 2.28374 2.14756 4.54188e-006 -4.6773e-006 -1.04397 -2.00194 -9.61485 0.118889 -2.31537e-006 -1.84853e-007 -0.168764 19.6893 69.3298 -20.7093 -8.13649 25.2327 3.48774 
52.9946 93.6088 7.71117 -2.07386 -2.64853 -0.202929 -0.1113 -1.41849 0.00731758 -0.224256 1.16359 0.0306909 -0.22475 2.80865 0.034458 14.0312 3.47498 -3.26286 11.5808 14.2176 -0.902001 13.7673 -16.8269 -15.719 7.21881 28.4936 94.5864 -5.87398e-007 -9.90951e-007 -3.33614e-006 5.08023 56.706 -1.7772 -4.46681e-008 -1.68702e-006 -3.00956 8.02945 -4.95142 0.697668 -78.196 -0.637624 2.47739 -93.0146 12.4265 -23.3944 2.45933e-005 -5.85986e-007 5.96077e-006 -2.99546 1.39075 0.847339 -7.04463e-006 2.01311e-006 3.00731 -8.02924 -4.95147 -0.697682 -176.624 -0.51669 -2.78001 180 7.01568e-015 179.017 177.903 6.03632 179.775 3.27036e-006 -6.58709e-007 0.0465298 -18.1358 67.4366 19.0716 8.13649 25.2327 -3.48774 -177.188 2.27266 2.14809 4.54188e-006 -4.6773e-006 -1.04416 -1.99995 -9.61229 0.119404 -2.31537e-006 -1.84853e-007 -0.168565 19.6888 69.3292 -20.7087 -8.13649 25.2327 3.48774 
52.9809 93.6106 7.71248 -2.0764 -2.65627 -0.204084 -0.110439 -1.41778 0.00745981 -0.22157 1.16409 0.032183 -0.222075 2.80915 0.0359055 13.965 3.4523 -3.24412 11.5659 14.225 -0.898851 13.8547 -16.8248 -15.701 7.31903 28.5608 94.5329 -5.87398e-007 -9.90951e-007 -3.33614e-006 4.92984 56.4618 -1.70511 -4.46681e-008 -1.68702e-006 -3.00954 8.02945 -4.95142 0.697668 -78.1761 -0.645845 2.47875 -93.0204 12.4365 -23.4018 2.45933e-005 -5.85986e-007 5.96077e-006 -2.98495 1.41299 0.848164 -7.04463e-006 2.01311e-006 3.0073 -8.02924 -4.95147 -0.697682 -176.62 -0.523957 -2.78188 180 7.01567e-015 179.016 177.906 6.04164 179.775 3.27036e-006 -6.58709e-007 0.046547 -18.1375 67.4387 19.0731 8.13649 25.2327 -3.48774 -177.188 2.26174 2.14854 4.54188e-006 -4.6773e-006 -1.04436 -1.99795 -9.60976 0.119955 -2.31536e-006 -1.84853e-007 -0.168355 19.6884 69.3286 -20.7083 -8.13649 25.2327 3.48774 
52.9873 93.5715 7.71729 -2.07905 -2.66394 -0.205429 -0.109544 -1.41704 0.00759607 -0.218757 1.1646 0.0337197 -0.219273 2.80966 0.0373957 13.897 3.42903 -3.22434 11.5504 14.2333 -0.895101 13.9421 -16.8221 -15.6822 7.42318 28.6278 94.4826 -5.87398e-007 -9.90951e-007 -3.33614e-006 4.78263 56.2191 -1.63542 -4.4668e-008 -1.68702e-006 -3.00952 8.02945 -4.95142 0.697668 -78.1562 -0.654346 2.48022 -93.0264 12.4468 -23.4095 2.45933e-005 -5.85986e-007 5.96077e-006 -2.97403 1.4354 0.848988 -7.04463e-006 2.01311e-006 3.00729 -8.02924 -4.95147 -0.697682 -176.617 -0.531047 -2.78392 180 7.01567e-015 179.015 177.909 6.04707 179.775 3.27036e-006 -6.58709e-007 0.0465625 -18.139 67.4406 19.0745 8.13649 25.2327 -3.48774 -177.187 2.2509 2.14896 4.54188e-006 -4.6773e-006 -1.04456 -1.99598 -9.60719 0.120529 -2.31536e-006 -1.84853e-007 -0.168136 19.6881 69.3282 -20.7079 -8.13649 25.2327 3.48774 
52.9777 93.5803 7.72901 -2.08172 -2.67156 -0.207039 -0.108626 -1.41627 0.00772596 -0.215855 1.16509 0.0352621 -0.216382 2.81015 0.0388903 13.827 3.40544 -3.20343 11.5347 14.2425 -0.890686 14.0293 -16.8187 -15.6624 7.53035 28.6945 94.4356 -5.87398e-007 -9.90951e-007 -3.33614e-006 4.63703 55.9754 -1.56729 -4.4668e-008 -1.68702e-006 -3.0095 8.02945 -4.95142 0.697668 -78.1368 -0.663115 2.48185 -93.0324 12.4573 -23.4174 2.45933e-005 -5.85986e-007 5.96077e-006 -2.96289 1.45772 0.849801 -7.04463e-006 2.01311e-006 3.00728 -8.02924 -4.95147 -0.697682 -176.613 -0.537883 -2.78608 180 7.01567e-015 179.013 177.912 6.05279 179.775 3.27036e-006 -6.58709e-007 0.0465778 -18.1405 67.4425 19.0758 8.13649 25.2327 -3.48774 -177.186 2.24006 2.14939 4.54188e-006 -4.6773e-006 -1.04476 -1.99406 -9.60451 0.121109 -2.31536e-006 -1.84853e-007 -0.167907 19.6878 69.3277 -20.7076 -8.13649 25.2327 3.48774 
52.9825 93.6104 7.73137 -2.08428 -2.67916 -0.208992 -0.107699 -1.41553 0.0078491 -0.212903 1.16555 0.0367717 -0.213441 2.81061 0.0403514 13.7547 3.38181 -3.1813 11.5189 14.2525 -0.885539 14.1163 -16.8144 -15.6415 7.6397 28.7607 94.3919 -5.87398e-007 -9.90951e-007 -3.33614e-006 4.49151 55.7283 -1.4999 -4.46681e-008 -1.68702e-006 -3.00949 8.02945 -4.95142 0.697668 -78.1179 -0.67214 2.48363 -93.0381 12.468 -23.4254 2.45933e-005 -5.85986e-007 5.96077e-006 -2.95169 1.47972 0.850598 -7.04463e-006 2.01311e-006 3.00727 -8.02924 -4.95147 -0.697682 -176.609 -0.544385 -2.78828 180 7.01567e-015 179.012 177.915 6.05899 179.774 3.27036e-006 -6.58709e-007 0.046594 -18.1421 67.4444 19.0771 8.13649 25.2327 -3.48774 -177.186 2.22917 2.14987 4.54188e-006 -4.6773e-006 -1.04496 -1.99221 -9.60167 0.121682 -2.31537e-006 -1.84853e-007 -0.167668 19.6875 69.3273 -20.7072 -8.13649 25.2327 3.48774 
52.9802 93.5985 7.73732 -2.08664 -2.68674 -0.211364 -0.106773 -1.41482 0.00796508 -0.209941 1.16596 0.0382097 -0.210489 2.81102 0.0417406 13.6799 3.35839 -3.15787 11.5035 14.2632 -0.879596 14.2032 -16.8091 -15.6192 7.75032 28.8263 94.3519 -5.87398e-007 -9.90951e-007 -3.33614e-006 4.34459 55.4752 -1.43247 -4.46681e-008 -1.68702e-006 -3.00947 8.02945 -4.95142 0.697668 -78.0999 -0.681407 2.4856 -93.043 12.4788 -23.4335 2.45933e-005 -5.85986e-007 5.96077e-006 -2.94063 1.50115 0.851369 -7.04463e-006 2.01311e-006 3.00726 -8.02924 -4.95147 -0.697682 -176.605 -0.550476 -2.79048 180 7.01566e-015 179.011 177.918 6.06579 179.774 3.27036e-006 -6.58709e-007 0.0466126 -18.1437 67.4464 19.0786 8.13649 25.2327 -3.48774 -177.186 2.21813 2.15044 4.54188e-006 -4.6773e-006 -1.04516 -1.99045 -9.59858 0.122233 -2.31537e-006 -1.84853e-007 -0.167422 19.6871 69.3267 -20.7068 -8.13649 25.2327 3.48774 
